<svg width="17" height="16" viewBox="0 0 17 16" fill="none" xmlns="http://www.w3.org/2000/svg">
<path d="M8.4985 0.0020526C6.59941 0.00113056 4.76202 0.693782 3.31536 1.95597C1.86869 3.21816 0.907238 4.96746 0.603164 6.8906C0.299089 8.81374 0.672255 10.7851 1.65584 12.4517C2.63942 14.1183 4.16918 15.3713 5.97118 15.9863C6.37091 16.0622 6.51781 15.8079 6.51781 15.5916C6.51781 15.3958 6.50982 14.7499 6.50682 14.065C4.2823 14.5612 3.81361 13.0972 3.81361 13.0972C3.44985 12.1489 2.9262 11.8967 2.9262 11.8967C2.20068 11.3872 2.98116 11.3984 2.98116 11.3984C3.78363 11.4558 4.20635 12.2432 4.20635 12.2432C4.91987 13.4971 6.07711 13.1341 6.5328 12.925C6.60476 12.3949 6.81162 12.033 7.04047 11.828C5.26464 11.6209 3.39788 10.9176 3.39788 7.77427C3.39788 6.87925 3.71068 6.14724 4.22134 5.57311C4.13839 5.36602 3.86457 4.53251 4.29829 3.40272C4.29829 3.40272 4.96984 3.18229 6.49783 4.2434C7.14996 4.06141 7.82268 3.96868 8.4985 3.96762C9.17805 3.97069 9.8626 4.06194 10.5012 4.2434C12.0272 3.18229 12.6977 3.40272 12.6977 3.40272C13.1324 4.53251 12.8596 5.36704 12.7767 5.57311C13.2893 6.14724 13.5991 6.87925 13.5991 7.77427C13.5991 10.9248 11.7284 11.6178 9.94854 11.8208C10.2353 12.0751 10.4912 12.5744 10.4912 13.3392C10.4912 14.4362 10.4822 15.3199 10.4822 15.5895C10.4822 15.8079 10.6261 16.0632 11.0318 15.9832C12.8335 15.3676 14.3627 14.114 15.3456 12.4472C16.3286 10.7803 16.7011 8.80887 16.3964 6.88593C16.0918 4.96299 15.1298 3.2141 13.6829 1.9524C12.236 0.690701 10.3985 -0.00140677 8.4995 2.14683e-06L8.4985 0.0020526Z" fill="#E9E5FF"/>
</svg>
