<svg width="17" height="16" viewBox="0 0 17 16" fill="none" xmlns="http://www.w3.org/2000/svg">
<g clip-path="url(#clip0_935_11543)">
<path d="M2.96875 13.3958H5.375V6.16667H2.96875V13.3958ZM5.53125 3.9375C5.52431 3.57639 5.39931 3.27778 5.15625 3.04167C4.91319 2.80556 4.59028 2.6875 4.1875 2.6875C3.78472 2.6875 3.4566 2.80556 3.20313 3.04167C2.94965 3.27778 2.82292 3.57639 2.82292 3.9375C2.82292 4.29167 2.94618 4.58854 3.19271 4.82813C3.43924 5.06771 3.76042 5.1875 4.15625 5.1875H4.16667C4.57639 5.1875 4.90625 5.06771 5.15625 4.82813C5.40625 4.58854 5.53125 4.29167 5.53125 3.9375ZM11.625 13.3958H14.0313V9.25C14.0313 8.18056 13.7778 7.37153 13.2708 6.82292C12.7639 6.27431 12.0938 6 11.2604 6C10.316 6 9.59028 6.40625 9.08333 7.21875H9.10417V6.16667H6.69792C6.71875 6.625 6.71875 9.03472 6.69792 13.3958H9.10417V9.35417C9.10417 9.09028 9.12847 8.89583 9.17708 8.77083C9.28125 8.52778 9.4375 8.32118 9.64583 8.15104C9.85417 7.9809 10.1111 7.89583 10.4167 7.89583C11.2222 7.89583 11.625 8.44097 11.625 9.53125V13.3958ZM16.5 3V13C16.5 13.8264 16.2066 14.533 15.6198 15.1198C15.033 15.7066 14.3264 16 13.5 16H3.5C2.67361 16 1.96701 15.7066 1.38021 15.1198C0.793403 14.533 0.5 13.8264 0.5 13V3C0.5 2.17361 0.793403 1.46701 1.38021 0.880208C1.96701 0.293403 2.67361 0 3.5 0H13.5C14.3264 0 15.033 0.293403 15.6198 0.880208C16.2066 1.46701 16.5 2.17361 16.5 3Z" fill="#E9E5FF"/>
</g>
<defs>
<clipPath id="clip0_935_11543">
<rect width="16" height="16" fill="white" transform="translate(0.5)"/>
</clipPath>
</defs>
</svg>
