<svg width="17" height="16" viewBox="0 0 17 16" fill="none" xmlns="http://www.w3.org/2000/svg">
<g clip-path="url(#clip0_935_11533)">
<path d="M13.2625 3.24365C12.2469 2.23115 11.1656 2.8874 10.4875 3.5624L4.08751 9.9624C3.40938 10.6405 2.70001 11.6718 3.76876 12.7374C4.83438 13.803 5.86251 13.0937 6.54063 12.4155L12.9406 6.01553C13.6188 5.34053 14.275 4.25615 13.2625 3.24365ZM7.14688 2.98115L8.50313 4.3374L9.88126 2.95615C9.97501 2.8624 10.0688 2.7749 10.1656 2.69365C10.0219 1.96553 9.60626 1.30615 8.50001 1.30615C7.39376 1.30615 6.97813 1.96865 6.83751 2.69678C6.94063 2.7874 7.04376 2.87803 7.14688 2.98115ZM9.88126 13.0468L8.50313 11.6687L7.14688 13.0218C7.04376 13.1249 6.94376 13.2218 6.84063 13.3093C6.99688 14.053 7.43438 14.7312 8.50001 14.7312C9.56876 14.7312 10.0094 14.0468 10.1625 13.303C10.0688 13.2218 9.97501 13.1405 9.88126 13.0468ZM6.57188 6.26553H3.95938C3.00001 6.26553 1.77188 6.56865 1.77188 7.9999C1.77188 9.07178 2.45626 9.50928 3.20313 9.6624C3.29063 9.5624 6.57188 6.26553 6.57188 6.26553ZM13.8063 6.3374C13.725 6.43115 10.4344 9.7374 10.4344 9.7374H13.0094C13.9688 9.7374 15.1969 9.50928 15.1969 7.9999C15.1969 6.89678 14.5375 6.48115 13.8063 6.3374ZM7.42813 5.40928L7.89376 4.94365L6.54063 3.5874C5.86251 2.90928 4.83438 2.1999 3.76563 3.26865C2.98438 4.0499 3.15938 4.8124 3.57188 5.42803C3.70001 5.41865 7.42813 5.40928 7.42813 5.40928ZM9.57501 10.5937L9.10626 11.0624L10.4875 12.4405C11.1656 13.1187 12.2469 13.7749 13.2594 12.7624C14.0156 12.0062 13.8438 11.2093 13.425 10.5749C13.2906 10.5843 9.57501 10.5937 9.57501 10.5937Z" fill="#E9E5FF"/>
</g>
<defs>
<clipPath id="clip0_935_11533">
<rect width="16" height="16" fill="white" transform="translate(0.5)"/>
</clipPath>
</defs>
</svg>
